<svg width="139" height="93" viewBox="0 0 139 93" fill="none" xmlns="http://www.w3.org/2000/svg">
<path d="M54.6664 47.76H55.9064C59.1331 47.76 60.7464 46.2267 60.7464 43.16C60.7464 39.9867 59.1331 38.4 55.9064 38.4H54.6664V47.76ZM54.6664 59.2H56.9064C58.5064 59.2 59.7731 58.7867 60.7064 57.96C61.6397 57.1333 62.1064 55.9333 62.1064 54.36C62.1064 52.1467 61.5597 50.6267 60.4664 49.8C59.3731 48.9733 57.8664 48.56 55.9464 48.56H54.6664V59.2ZM46.6664 60V59.2H48.6664V38.4H46.6664V37.6H56.7464C60.0531 37.6 62.4797 38.1067 64.0264 39.12C65.5997 40.1333 66.3864 41.52 66.3864 43.28C66.3864 44.6933 65.9197 45.8533 64.9864 46.76C64.0797 47.64 62.8531 48.08 61.3064 48.08V48.32C63.2264 48.32 64.8397 48.84 66.1464 49.88C67.4531 50.8933 68.1064 52.3467 68.1064 54.24C68.1064 56.1333 67.3464 57.5733 65.8264 58.56C64.3064 59.52 62.1331 60 59.3064 60H46.6664ZM93.5345 37.6V38.4H90.8145L82.2945 60H81.2545L71.2145 38.4H69.2945V37.6H80.6145V38.4H78.6545L84.4945 51.8L89.7745 38.4H86.5745V37.6H93.5345Z" fill="#FFFEFE"/>
<line y1="-1.5" x2="64.8458" y2="-1.5" transform="matrix(0.831741 -0.555164 0.604194 0.796837 28.9583 48.1698)" stroke="#FFFEFE" stroke-width="3"/>
<line y1="-1.5" x2="64.8458" y2="-1.5" transform="matrix(0.831741 -0.555164 0.604194 0.796837 28.9583 48.1698)" stroke="#FFFEFE" stroke-width="3"/>
<line y1="-1.5" x2="64.8458" y2="-1.5" transform="matrix(0.831741 -0.555164 0.604194 0.796837 28.9583 48.1698)" stroke="#FFFEFE" stroke-width="3"/>
<line y1="-1.5" x2="64.8458" y2="-1.5" transform="matrix(0.831741 -0.555164 0.604194 0.796837 22.4427 39)" stroke="#FFFEFE" stroke-width="3"/>
<line y1="-1.5" x2="64.8458" y2="-1.5" transform="matrix(0.831741 -0.555164 0.604194 0.796837 56.1068 84.1698)" stroke="#FFFEFE" stroke-width="3"/>
<line y1="-1.5" x2="64.8458" y2="-1.5" transform="matrix(0.831741 -0.555164 0.604194 0.796837 64.0703 93)" stroke="#FFFEFE" stroke-width="3"/>
</svg>
